<svg width="27" height="26" viewBox="0 0 27 26" fill="none" xmlns="http://www.w3.org/2000/svg">
<path d="M17.8942 6.17236H3.22949V21.9949H7.31109V16.8473H15.1322L18.7007 21.9949H23.271L19.3361 16.8236C20.5582 16.6338 21.438 16.183 21.9758 15.4714C22.5134 14.7598 22.7823 13.6211 22.7823 12.1029V10.9168C22.7823 10.0154 22.6847 9.30374 22.5135 8.75814C22.3423 8.21255 22.049 7.73805 21.6336 7.31108C21.1936 6.90781 20.7049 6.62317 20.1183 6.43345C19.5316 6.26743 18.7983 6.17236 17.8942 6.17236ZM17.2343 13.3603H7.31109V9.65948H17.2343C17.7963 9.65948 18.1873 9.75427 18.3829 9.92043C18.5784 10.0864 18.7007 10.3948 18.7007 10.8456V12.174C18.7007 12.6484 18.5784 12.9567 18.3829 13.1228C18.1873 13.2888 17.7964 13.36 17.2343 13.36V13.3603Z" stroke="black" stroke-width="1.5" stroke-linecap="round" stroke-linejoin="round"/>
<path d="M22.4487 5.9012C23.1962 5.9012 23.8026 5.29494 23.8026 4.54704C23.8026 3.79913 23.1962 3.19287 22.4487 3.19287C21.7006 3.19287 21.0942 3.79913 21.0942 4.54704C21.0942 5.29494 21.7006 5.9012 22.4487 5.9012Z" fill="black"/>
</svg>
