<svg width="25" height="26" viewBox="0 0 25 26" fill="none" xmlns="http://www.w3.org/2000/svg">
<path d="M20.3673 3.62206C20.1048 3.63427 19.8576 3.71056 19.6379 3.79601H19.6348C19.4121 3.88451 18.3531 4.33007 16.7448 5.00451C15.1365 5.682 13.0491 6.5609 10.977 7.43371C6.83881 9.17626 2.77082 10.8913 2.77082 10.8913L2.81965 10.873C2.81965 10.873 2.53888 10.9646 2.24592 11.166C2.09638 11.2637 1.93158 11.3979 1.78815 11.6085C1.64472 11.8191 1.52875 12.1426 1.57148 12.4752C1.64167 13.0398 2.00788 13.3785 2.27033 13.5647C2.53583 13.7539 2.78913 13.8424 2.78913 13.8424H2.79523L6.60993 15.1272C6.78083 15.6765 7.77265 18.9358 8.01069 19.6865C8.15107 20.1351 8.2884 20.4159 8.45929 20.6295C8.54169 20.7394 8.63935 20.8309 8.75532 20.9042C8.80109 20.9316 8.84992 20.953 8.89875 20.9713C8.91401 20.9805 8.92927 20.9835 8.94758 20.9866L8.9079 20.9774C8.92011 20.9805 8.92927 20.9896 8.93842 20.9927C8.96894 21.0018 8.9903 21.0049 9.02997 21.011C9.63422 21.1941 10.1195 20.8187 10.1195 20.8187L10.1469 20.7974L12.3991 18.7466L16.1741 21.6427L16.2596 21.6793C17.0469 22.0242 17.8435 21.8319 18.2646 21.4932C18.6888 21.1514 18.8536 20.715 18.8536 20.715L18.881 20.6448L21.7985 5.70031C21.8809 5.33104 21.9023 4.9862 21.8107 4.6505C21.7192 4.31481 21.4842 4.00048 21.2004 3.83263C20.9135 3.66173 20.6297 3.60985 20.3673 3.62206ZM20.2879 5.22423C20.2849 5.27306 20.294 5.26696 20.2726 5.36156V5.37072L17.3826 20.1595C17.3704 20.1809 17.3491 20.2267 17.2911 20.2725C17.23 20.3213 17.1812 20.3518 16.9279 20.2511L12.3106 16.711L9.52131 19.2532L10.1072 15.5117C10.1072 15.5117 17.3399 8.77038 17.6512 8.48046C17.9625 8.19054 17.8587 8.12951 17.8587 8.12951C17.8801 7.7755 17.3887 8.02575 17.3887 8.02575L7.87641 13.9187L7.87336 13.9034L3.31403 12.3684V12.3653C3.31098 12.3653 3.30488 12.3623 3.30182 12.3623C3.30488 12.3623 3.32624 12.3531 3.32624 12.3531L3.35065 12.3409L3.37507 12.3318C3.37507 12.3318 7.44611 10.6167 11.5843 8.87414C13.6564 8.00133 15.7438 7.12243 17.3491 6.44494C18.9543 5.7705 20.1414 5.27611 20.2086 5.24865C20.2726 5.22423 20.2421 5.22423 20.2879 5.22423Z" fill="black"/>
</svg>
