<svg width="19" height="20" viewBox="0 0 19 20" fill="none" xmlns="http://www.w3.org/2000/svg">
<g clip-path="url(#clip0_4050_39)">
<path d="M14.0588 11.4176C14.0218 11.3999 12.6366 10.7178 12.3905 10.6292C12.29 10.5931 12.1824 10.5579 12.0679 10.5579C11.8808 10.5579 11.7237 10.6511 11.6013 10.8342C11.4629 11.0399 11.0441 11.5295 10.9147 11.6757C10.8978 11.695 10.8747 11.7181 10.8609 11.7181C10.8485 11.7181 10.6341 11.6298 10.5692 11.6017C9.08332 10.9562 7.95547 9.40407 7.80082 9.14233C7.77874 9.1047 7.77781 9.08761 7.77763 9.08761C7.78305 9.06768 7.83302 9.01759 7.85881 8.99175C7.93425 8.9171 8.01599 8.81871 8.09507 8.72352C8.13252 8.67843 8.17003 8.63327 8.20685 8.59071C8.32159 8.45722 8.37267 8.35358 8.43189 8.23353L8.46292 8.17117C8.60752 7.88388 8.48402 7.64145 8.44411 7.56317C8.41135 7.49765 7.82648 6.0861 7.7643 5.9378C7.61477 5.57995 7.41718 5.41333 7.14261 5.41333C7.11713 5.41333 7.14261 5.41333 7.03576 5.41783C6.90566 5.42332 6.19717 5.5166 5.88392 5.71406C5.55173 5.92349 4.98975 6.59108 4.98975 7.76514C4.98975 8.82179 5.6603 9.81948 5.9482 10.1989C5.95535 10.2085 5.96849 10.2279 5.98755 10.2558C7.09011 11.866 8.46459 13.0593 9.85794 13.6159C11.1994 14.1517 11.8346 14.2137 12.1957 14.2137H12.1957C12.3475 14.2137 12.469 14.2018 12.5761 14.1912L12.6441 14.1847C13.1075 14.1436 14.1258 13.616 14.3575 12.9722C14.54 12.4652 14.5881 11.9113 14.4667 11.7102C14.3835 11.5735 14.2402 11.5047 14.0588 11.4176Z" fill="black"/>
<path d="M9.66864 0.5C4.52285 0.5 0.336434 4.65495 0.336434 9.76207C0.336434 11.4139 0.778492 13.0308 1.61591 14.4459L0.0130636 19.174C-0.0167935 19.2622 0.00541424 19.3597 0.0706188 19.426C0.117687 19.4741 0.181534 19.5 0.246739 19.5C0.271723 19.5 0.296892 19.4962 0.321443 19.4884L5.25157 17.9218C6.6007 18.6426 8.12551 19.0231 9.6687 19.0231C14.814 19.0231 19 14.8686 19 9.76207C19 4.65495 14.814 0.5 9.66864 0.5ZM9.66864 17.0938C8.21656 17.0938 6.81013 16.6745 5.60116 15.8812C5.56051 15.8545 5.51332 15.8408 5.46582 15.8408C5.44071 15.8408 5.41554 15.8446 5.39105 15.8524L2.92136 16.6374L3.71862 14.2853C3.7444 14.2092 3.73151 14.1252 3.68401 14.0603C2.76338 12.8024 2.27672 11.3161 2.27672 9.76207C2.27672 5.71883 5.59271 2.42936 9.66858 2.42936C13.744 2.42936 17.0596 5.71883 17.0596 9.76207C17.0596 13.8048 13.7441 17.0938 9.66864 17.0938Z" fill="black"/>
</g>
<defs>
<clipPath id="clip0_4050_39">
<rect width="19" height="19" fill="white" transform="translate(0 0.5)"/>
</clipPath>
</defs>
</svg>
