<svg width="29" height="18" viewBox="0 0 29 18" fill="none" xmlns="http://www.w3.org/2000/svg">
<path fill-rule="evenodd" clip-rule="evenodd" d="M11.9995 1.50841C11.5002 1.54486 10.8673 1.6419 10.614 1.72083C10.1791 1.85638 9.63719 2.33979 9.7374 2.50277C9.75582 2.53272 9.8567 2.57325 9.96154 2.59279C10.4322 2.68059 10.8291 2.94885 11.0071 3.29929C11.3112 3.89835 11.448 5.77198 11.2844 7.09837C11.1763 7.97513 11.1306 8.17837 10.9703 8.49628C10.5401 9.34905 9.55236 8.65869 8.46375 6.74458C8.07633 6.06344 6.98607 3.87726 6.74279 3.29388C6.44877 2.58882 6.35569 2.45899 6.02138 2.28808L5.7392 2.14382L3.60969 2.15918C1.68667 2.17305 1.46407 2.18341 1.31388 2.26586C1.07578 2.39661 0.974077 2.5751 1.00558 2.80722C1.0393 3.05589 1.84697 4.85971 2.44216 6.01565C3.60092 8.26612 4.58234 9.90032 5.6315 11.3262C7.17455 13.4233 7.85727 14.1037 9.43378 15.1158C10.1699 15.5884 10.7012 15.8528 11.358 16.0733C12.2605 16.3763 12.6533 16.4346 14.0007 16.4656C15.3416 16.4964 15.7268 16.4576 16.0109 16.2628C16.2449 16.1024 16.3173 15.8811 16.361 15.193C16.4041 14.514 16.5361 13.9317 16.7175 13.6207C16.8776 13.3462 17.2255 13.0293 17.3747 13.0219C17.8955 12.9961 18.1871 13.2135 19.2751 14.439C20.2953 15.5879 20.6723 15.926 21.2359 16.1971C21.4899 16.3193 21.8016 16.4433 21.9286 16.4726C22.2365 16.5435 26.3924 16.4638 26.6608 16.3817C26.9264 16.3005 27.2126 16.0184 27.2191 15.8314C27.237 15.3196 27.1628 15.0889 26.8064 14.5482C26.338 13.8375 25.9356 13.3837 24.5657 12.021C23.111 10.574 23.0094 10.4393 23.0073 9.95523C23.0056 9.54884 23.1946 9.23661 24.4718 7.53662C26.2734 5.13854 26.9948 3.98022 27.1953 3.16359C27.313 2.68466 27.246 2.45358 26.9425 2.29055L26.7264 2.17455L24.1351 2.19187C22.3033 2.20409 21.5067 2.22677 21.4173 2.26921C21.2435 2.35175 21.0591 2.65275 20.828 3.23149C20.2125 4.77294 18.9453 6.99361 18.1102 7.9941C17.7779 8.39228 17.2614 8.7998 17.0891 8.7998C16.8486 8.7998 16.6503 8.64374 16.4999 8.33619L16.3611 8.05221L16.3752 5.37534C16.3903 2.49668 16.3838 2.41166 16.1186 2.03157C15.8575 1.65721 15.2208 1.52883 13.5132 1.5063C12.8218 1.49712 12.1406 1.4981 11.9995 1.50841Z" stroke="black" stroke-width="1.7"/>
</svg>
