<svg width="191" height="60" viewBox="0 0 191 60" fill="none" xmlns="http://www.w3.org/2000/svg">
<path d="M3.27021 20.7901C3.27021 23.8606 3.89426 26.8325 5.14295 29.7047C6.39106 32.5777 8.09034 35.1324 10.2402 37.3692C12.3905 39.6061 14.9099 41.3936 17.8 42.731C20.6888 44.0696 23.799 44.7377 27.1278 44.7377C29.9941 44.7377 32.5952 44.2226 34.9305 43.1916C37.2643 42.1616 39.2757 40.7573 40.9639 38.981C42.6512 37.2046 43.9573 35.1324 44.8825 32.7639C45.8069 30.3954 46.2695 27.8954 46.2695 25.2638C46.2695 22.2375 45.6562 19.277 44.4319 16.3822C43.2062 13.4874 41.5296 10.9216 39.4037 8.68478C37.2763 6.44782 34.7572 4.65002 31.8443 3.28995C28.9313 1.93096 25.8102 1.25056 22.4813 1.25056C19.6606 1.25056 17.0715 1.76659 14.7136 2.79666C12.3558 3.82745 10.3207 5.23082 8.61035 7.00697C6.89948 8.78347 5.58175 10.8559 4.65736 13.2244C3.73183 15.5925 3.27021 18.1154 3.27021 20.7901ZM24.8393 45.9875C21.4637 45.9875 18.2963 45.3851 15.3378 44.1784C12.3783 42.9726 9.80046 41.3392 7.60475 39.277C5.40828 37.2158 3.67458 34.7817 2.40345 31.9744C1.13118 29.1681 0.496094 26.1849 0.496094 23.0269C0.496094 19.8259 1.13118 16.8324 2.40345 14.0466C3.67458 11.2618 5.40828 8.82749 7.60475 6.74408C9.80046 4.66139 12.3665 3.01642 15.3032 1.80971C18.2388 0.603905 21.3717 0.000370026 24.7006 0.000370026C28.0752 0.000370026 31.2425 0.603905 34.202 1.80971C37.1602 3.01642 39.7386 4.67167 41.9349 6.77692C44.1306 8.88216 45.8645 11.3275 47.1364 14.1126C48.4079 16.8983 49.0438 19.869 49.0438 23.0269C49.0438 26.229 48.4079 29.2225 47.1364 32.0072C45.8645 34.793 44.1306 37.2158 41.9349 39.277C39.7386 41.3392 37.1724 42.9726 34.2368 44.1784C31.3003 45.3851 28.1682 45.9875 24.8393 45.9875Z" fill="#976843"/>
<path d="M70.8895 13.619C69.0866 13.619 67.4219 13.8822 65.8959 14.4085C64.3703 14.9348 63.0417 15.6584 61.9085 16.5794C60.7756 17.5005 59.8971 18.5862 59.2727 19.836C58.6488 21.0862 58.3365 22.4349 58.3365 23.8823V40.2638C58.3365 41.009 58.5098 41.5241 58.8569 41.8099C59.2034 42.0948 59.6314 42.2375 60.1398 42.2375C60.9263 42.2375 61.8507 41.9519 62.9141 41.3825V41.7112L55.7012 45.9875H55.3541V17.3031C55.3541 16.0306 54.893 15.0992 53.9671 14.5072C53.0429 13.9151 51.9799 13.5746 50.7769 13.4874V13.1583H52.2336L55.2154 13.0927H56.6722C57.4589 13.0927 57.9325 13.3332 58.0938 13.8162C58.2566 14.2985 58.3365 14.9123 58.3365 15.6584V20.3295C58.7072 19.4957 59.238 18.6407 59.9317 17.7636C60.625 16.886 61.492 16.1078 62.5324 15.4283C63.5726 14.7475 64.7863 14.1884 66.1736 13.7505C67.5606 13.3117 69.156 13.0927 70.9589 13.0927C72.7164 13.0927 74.3923 13.3445 75.9872 13.8494C77.5824 14.3531 79.0161 15.0878 80.2871 16.0531C81.5593 17.0175 82.6102 18.1914 83.4425 19.5729C84.2749 20.9547 84.7842 22.522 84.9687 24.2769C85.015 24.4958 85.038 24.6933 85.038 24.8691V25.4612V40.2638C85.038 41.4913 85.5473 42.1491 86.5636 42.2375C87.4887 42.325 88.5056 42.0401 89.6152 41.3825V41.7112L82.4023 45.9875H82.0556V25.4612C82.0556 23.8823 81.8131 22.3793 81.3273 20.9547C80.8421 19.5287 80.1258 18.2787 79.1774 17.2044C78.2304 16.1293 77.062 15.2636 75.6752 14.6057C74.2877 13.9481 72.6928 13.619 70.8895 13.619Z" fill="#976843"/>
<path d="M116.456 22.369C115.114 19.9574 113.335 17.9509 111.115 16.3492C108.896 14.7486 106.306 13.9479 103.347 13.9479C100.434 13.9479 98.0183 14.727 96.0999 16.2835C94.1811 17.8408 92.8284 19.869 92.0427 22.369H116.456ZM91.904 22.8954C91.488 24.2552 91.2802 25.7027 91.2802 27.2374C91.2802 29.6059 91.7534 31.8428 92.7017 33.9481C93.6491 36.0533 94.9321 37.9067 96.5511 39.5073C98.1691 41.1088 100.064 42.3804 102.238 43.3232C104.41 44.2668 106.746 44.7374 109.243 44.7374C112.34 44.7374 114.791 44.0467 116.594 42.6651C118.398 41.2836 119.322 39.4311 119.368 37.1059C119.368 35.6152 119.01 34.0796 118.293 32.5007C117.576 30.9217 116.582 29.4527 115.311 28.0926C114.039 26.7336 112.537 25.5711 110.803 24.6058C109.069 23.6416 107.185 23.0711 105.151 22.8954H91.904ZM107.925 22.8954C109.774 23.3785 111.45 24.1567 112.953 25.2306C114.455 26.3062 115.727 27.512 116.768 28.8493C117.808 30.1876 118.606 31.5693 119.16 32.994C119.715 34.4197 119.992 35.7471 119.992 36.9744C119.992 37.7205 119.854 38.6087 119.576 39.6388C119.299 40.6699 118.72 41.6567 117.843 42.5993C116.963 43.5429 115.75 44.3429 114.202 45.0006C112.652 45.6584 110.583 45.9875 107.994 45.9875C105.497 45.9875 103.07 45.5928 100.712 44.8034C98.3538 44.0138 96.2618 42.8955 94.4358 41.4481C92.6089 40.0007 91.1415 38.247 90.0318 36.1848C88.9222 34.1238 88.3672 31.8212 88.3672 29.2769C88.3672 27.04 88.7832 24.9459 89.6155 22.9941C90.4478 21.0429 91.6147 19.3324 93.1181 17.8625C94.6195 16.3934 96.4124 15.2307 98.493 14.3755C100.574 13.5203 102.838 13.0927 105.29 13.0927C108.572 13.0927 111.497 13.915 114.063 15.5597C116.629 17.2044 118.536 19.4742 119.785 22.369V22.8954H107.925Z" fill="#976843"/>
<path d="M127.899 35.6585C128.87 38.5975 130.488 40.9658 132.754 42.764C135.018 44.5629 137.817 45.4612 141.145 45.4612C143.133 45.4612 144.971 45.045 146.659 44.2112C148.346 43.3787 149.791 42.2375 150.994 40.7903C152.195 39.3429 153.144 37.6548 153.837 35.7242C154.53 33.7949 154.878 31.7337 154.878 29.5402C154.878 27.6107 154.576 25.7028 153.976 23.8164C153.375 21.9311 152.485 20.2308 151.306 18.7177C150.127 17.2044 148.693 15.9772 147.006 15.0335C145.317 14.091 143.365 13.619 141.145 13.619C139.157 13.619 137.423 13.9262 135.944 14.5401C134.464 15.1548 133.181 15.933 132.095 16.8757C131.008 17.8193 130.129 18.872 129.459 20.0336C128.788 21.1963 128.269 22.3259 127.899 23.4217V35.6585ZM120.339 59.1455V58.8168C120.755 58.7724 121.229 58.6623 121.761 58.4877C122.292 58.3119 122.79 58.0817 123.252 57.797C123.714 57.5112 124.107 57.139 124.431 56.6783C124.754 56.2179 124.916 55.6587 124.916 55.0009V18.8166C124.916 17.9395 124.674 17.3692 124.189 17.1058C123.703 16.8429 123.114 16.777 122.42 16.9085C121.68 17.0843 120.986 17.3473 120.339 17.6979V17.3692L127.552 13.0927H127.899V21.9743C128.269 21.01 128.8 20.0121 129.494 18.9809C130.187 17.9509 131.077 16.997 132.164 16.119C133.25 15.2421 134.533 14.5186 136.013 13.9481C137.493 13.3784 139.204 13.0927 141.145 13.0927C143.642 13.0927 145.931 13.4986 148.011 14.3098C150.092 15.1218 151.883 16.2505 153.386 17.6979C154.888 19.1453 156.067 20.8785 156.924 22.8954C157.779 24.9133 158.207 27.1286 158.207 29.5402C158.207 31.8212 157.813 33.9593 157.028 35.9546C156.241 37.9511 155.108 39.6944 153.629 41.1849C152.149 42.6765 150.358 43.8495 148.254 44.7047C146.15 45.5599 143.781 45.9875 141.145 45.9875C138.047 45.9875 135.331 45.198 132.996 43.6191C130.661 42.0401 128.962 39.8692 127.899 37.1059V55.0009C127.899 55.6587 128.06 56.2179 128.385 56.6783C128.707 57.139 129.101 57.5112 129.563 57.797C130.025 58.0817 130.522 58.3119 131.054 58.4877C131.585 58.6623 132.06 58.7724 132.476 58.8168V59.1455H120.339Z" fill="#976843"/>
<path d="M182.688 31.2509C181.671 29.4971 180.271 28.0826 178.492 27.0074C176.712 25.9331 174.758 25.3956 172.632 25.3956C171.244 25.3956 169.984 25.637 168.852 26.1191C167.719 26.6023 166.771 27.2604 166.008 28.0929C165.246 28.9264 164.656 29.8919 164.24 30.9877C163.823 32.0845 163.616 33.2686 163.616 34.5403C163.616 35.9002 163.893 37.2272 164.448 38.5206C165.003 39.8148 165.753 40.9444 166.702 41.9088C167.649 42.874 168.77 43.6521 170.065 44.2443C171.359 44.8365 172.746 45.1324 174.227 45.1324C175.983 45.1324 177.601 44.6717 179.082 43.751C180.561 42.8299 181.762 41.6681 182.688 40.264V31.2509ZM175.128 13.0927C177.209 13.0927 178.931 13.356 180.295 13.8823C181.659 14.4086 182.746 15.122 183.555 16.0204C184.363 16.9198 184.918 17.9941 185.22 19.2441C185.519 20.4941 185.67 21.843 185.67 23.2904V41.843C185.67 42.4133 185.809 42.9284 186.086 43.3891C186.364 43.8495 186.721 44.2338 187.162 44.5404C187.6 44.8477 188.086 45.0893 188.618 45.2641C189.149 45.4396 189.693 45.5715 190.247 45.6587V45.9878H182.688V41.0534C182.272 41.6681 181.751 42.2708 181.128 42.8628C180.503 43.4548 179.775 43.9811 178.943 44.4417C178.111 44.9022 177.174 45.2753 176.134 45.56C175.094 45.846 173.925 45.9878 172.632 45.9878C171.013 45.9878 169.452 45.7473 167.95 45.2641C166.447 44.7818 165.13 44.0798 163.997 43.1587C162.864 42.2376 161.962 41.1193 161.292 39.8036C160.622 38.4877 160.287 36.9972 160.287 35.3299C160.287 33.7074 160.599 32.2489 161.223 30.9548C161.847 29.6615 162.714 28.5649 163.823 27.6652C164.933 26.7669 166.217 26.076 167.673 25.5928C169.129 25.1107 170.69 24.8693 172.354 24.8693C174.851 24.8693 176.954 25.3956 178.665 26.4482C180.376 27.5007 181.717 28.7292 182.688 30.1322V22.698C182.688 21.9087 182.653 21.0101 182.584 20.0008C182.515 18.9922 182.26 18.0385 181.821 17.1388C181.381 16.2403 180.677 15.4839 179.706 14.8692C178.735 14.2554 177.324 13.9481 175.475 13.9481C174.272 13.9481 173.174 14.135 172.181 14.5073C171.186 14.8804 170.319 15.3524 169.58 15.9218C168.84 16.4922 168.228 17.1285 167.742 17.8297C167.257 18.5319 166.921 19.2111 166.736 19.8693H163.408C164.471 17.808 165.95 16.1634 167.846 14.9349C169.741 13.7074 172.169 13.0927 175.128 13.0927Z" fill="#976843"/>
</svg>
